<?xml version="1.0" standalone="no"?><!DOCTYPE svg PUBLIC "-//W3C//DTD SVG 1.1//EN" "http://www.w3.org/Graphics/SVG/1.1/DTD/svg11.dtd"><svg t="1663326924621" class="icon" viewBox="0 0 1024 1024" version="1.1" xmlns="http://www.w3.org/2000/svg" p-id="2778" width="16" height="16" xmlns:xlink="http://www.w3.org/1999/xlink"><path d="M512.26 959.78A447.85 447.85 0 0 1 338 99.5a445 445 0 0 1 174.26-35.2 449.74 449.74 0 0 1 105.48 12.5 32 32 0 0 1-15 62.21 385.65 385.65 0 0 0-90.45-10.71A383.74 383.74 0 1 0 896 512a32 32 0 0 1 64 0 447.39 447.39 0 0 1-447.74 447.78z" fill="#229B00" p-id="2779"></path><path d="M889 336.84a412 412 0 0 1 23.27 62.25" fill="#FFFFFF" p-id="2780"></path><path d="M912.21 431.09a32 32 0 0 1-30.76-23.26A381.3 381.3 0 0 0 860 350.42a32 32 0 0 1 57.95-27.17A445.62 445.62 0 0 1 943 390.33a32 32 0 0 1-30.8 40.76z" fill="#229B00" p-id="2781"></path><path d="M714.6 150a416.51 416.51 0 0 1 92 69.55q14.46 14.48 27.47 30.34" fill="#FFFFFF" p-id="2782"></path><path d="M834.11 281.85a31.94 31.94 0 0 1-24.76-11.71c-8-9.71-16.49-19.13-25.37-28A384.31 384.31 0 0 0 699 177.92 32 32 0 1 1 730.17 122a448.32 448.32 0 0 1 99.09 74.9 455.344 455.344 0 0 1 29.58 32.67 32 32 0 0 1-24.73 52.29z" fill="#229B00" p-id="2783"></path><path d="M512 512m-320.22 0a320.22 320.22 0 1 0 640.44 0 320.22 320.22 0 1 0-640.44 0Z" fill="#F35336" p-id="2784"></path><path d="M647.92 327.66c-8 12.41-48 26.12-48 26.12a0.75 0.75 0 0 1-1-0.67S594.93 311 603 298.59a26.77 26.77 0 1 1 45 29.07zM724 425.93c-12.87 7.28-54.66 0.89-54.66 0.89a0.75 0.75 0 0 1-0.61-1.08s16-39.12 28.91-46.4A26.77 26.77 0 0 1 724 425.93zM734.56 546.34c-14.36-3.49-40.47-36.75-40.47-36.75a0.75 0.75 0 0 1 0.29-1.2s38.47-17.56 52.83-14.06a26.77 26.77 0 1 1-12.65 52zM691.35 650.92c-11.4-9.41-20.4-50.72-20.4-50.72a0.75 0.75 0 0 1 0.79-1s42.27 1 53.68 10.38a26.77 26.77 0 0 1-34.06 41.3zM599.91 721.92c-5.4-13.76 6.8-54.25 6.8-54.25a0.75 0.75 0 0 1 1.15-0.45s36.48 21.38 41.88 35.14a26.77 26.77 0 0 1-49.83 19.56zM374.64 327.66c8 12.41 48 26.12 48 26.12a0.75 0.75 0 0 0 1-0.67s3.91-42.1-4.11-54.52a26.77 26.77 0 0 0-45 29.07zM298.58 425.93c12.87 7.28 54.66 0.89 54.66 0.89a0.75 0.75 0 0 0 0.61-1.08s-16-39.12-28.91-46.4a26.77 26.77 0 1 0-26.36 46.59zM288 546.34c14.36-3.49 40.47-36.75 40.47-36.75a0.75 0.75 0 0 0-0.29-1.2s-38.47-17.56-52.83-14.06a26.77 26.77 0 1 0 12.65 52zM331.21 650.92c11.4-9.41 20.4-50.72 20.4-50.72a0.75 0.75 0 0 0-0.79-1s-42.27 1-53.68 10.38a26.77 26.77 0 1 0 34.06 41.3zM422.65 721.92c5.4-13.76-6.8-54.25-6.8-54.25a0.75 0.75 0 0 0-1.15-0.45s-36.48 21.38-41.88 35.14a26.77 26.77 0 0 0 49.83 19.56z" fill="" p-id="2785"></path></svg>
